<svg xmlns="http://www.w3.org/2000/svg" xmlns:xlink="http://www.w3.org/1999/xlink" width="500" zoomAndPan="magnify" viewBox="0 0 375 374.999991" height="500" preserveAspectRatio="xMidYMid meet" version="1.0"><defs><g/><clipPath id="2c4a11d2d1"><path d="M 167.972656 67.304688 L 349.605469 67.304688 L 349.605469 82.234375 L 167.972656 82.234375 Z M 334.675781 82.234375 L 349.605469 82.234375 L 349.605469 248.9375 L 334.675781 248.9375 Z M 334.675781 82.234375 " clip-rule="nonzero"/></clipPath><clipPath id="5e1ebbc89e"><path d="M 26.925781 141.070312 L 41.855469 141.070312 L 41.855469 173.167969 L 26.925781 173.167969 Z M 26.925781 173.167969 L 41.855469 173.167969 L 41.855469 307.777344 L 26.925781 307.777344 Z M 26.925781 307.777344 L 208.5625 307.777344 L 208.5625 322.707031 L 26.925781 322.707031 Z M 26.925781 307.777344 " clip-rule="nonzero"/></clipPath><clipPath id="03592b411e"><path d="M 163.503906 119.726562 L 371.78125 119.726562 L 371.78125 296.800781 L 163.503906 296.800781 Z M 163.503906 119.726562 " clip-rule="nonzero"/></clipPath><clipPath id="2be3423313"><path d="M 7.253906 46 L 239 46 L 239 289 L 7.253906 289 Z M 7.253906 46 " clip-rule="nonzero"/></clipPath></defs><g clip-path="url(#2c4a11d2d1)"><path fill="#86ed00" d="M 349.605469 67.304688 L 349.605469 248.9375 L 167.972656 248.9375 L 167.972656 67.304688 Z M 349.605469 67.304688 " fill-opacity="1" fill-rule="nonzero"/></g><g clip-path="url(#5e1ebbc89e)"><path fill="#9c94ff" d="M 26.925781 322.707031 L 26.925781 141.070312 L 208.5625 141.070312 L 208.5625 322.707031 Z M 26.925781 322.707031 " fill-opacity="1" fill-rule="nonzero"/></g><g clip-path="url(#03592b411e)"><path fill="#8277ff" d="M 332.824219 272.820312 L 245.976562 272.820312 L 224.875 296.800781 L 202.554688 272.820312 C 181.125 272.820312 163.59375 255.332031 163.59375 233.957031 L 163.59375 158.65625 C 163.59375 137.28125 181.125 119.792969 202.554688 119.792969 L 332.824219 119.792969 C 354.25 119.792969 371.78125 137.28125 371.78125 158.65625 L 371.78125 233.957031 C 371.78125 255.332031 354.25 272.820312 332.824219 272.820312 " fill-opacity="1" fill-rule="nonzero"/></g><path fill="#6e62fa" d="M 176.441406 262.675781 C 229.847656 234.558594 258.152344 179.296875 242.324219 119.792969 L 202.554688 119.792969 C 181.125 119.792969 163.59375 137.28125 163.59375 158.65625 L 163.59375 233.957031 C 163.59375 245.320312 168.578125 255.554688 176.441406 262.675781 " fill-opacity="1" fill-rule="nonzero"/><g clip-path="url(#2be3423313)"><path fill="#6add00" d="M 238.671875 146.917969 C 238.671875 193.730469 201.761719 233.0625 151.824219 244.175781 C 142.613281 246.226562 157.507812 277.679688 163.59375 288.703125 C 129.910156 288.703125 110.75 246.894531 104.828125 246.082031 C 49.589844 238.511719 7.351562 196.992188 7.351562 146.917969 C 7.351562 91.46875 59.136719 46.519531 123.011719 46.519531 C 186.890625 46.519531 238.671875 91.46875 238.671875 146.917969 " fill-opacity="1" fill-rule="nonzero"/></g><path fill="#86ed00" d="M 17.105469 124.164062 C 17.105469 124.164062 34.996094 73.804688 94.425781 58.507812 C 153.851562 43.207031 196.464844 78.90625 196.464844 78.90625 C 196.464844 78.90625 91.550781 18.984375 17.105469 124.164062 " fill-opacity="1" fill-rule="nonzero"/><path fill="#9c94ff" d="M 249.933594 125.859375 C 249.933594 125.859375 304.71875 125.859375 314.460938 125.859375 C 324.199219 125.859375 346.722656 124.035156 352.507812 132.839844 C 352.507812 132.839844 337.894531 131.324219 304.417969 131.324219 C 270.933594 131.324219 249.933594 131.019531 249.933594 131.019531 L 249.933594 125.859375 " fill-opacity="1" fill-rule="nonzero"/><g fill="#6e62fa" fill-opacity="1"><g transform="translate(81.752774, 191.645696)"><g><path d="M 65.6875 0 L 10.109375 0 L 10.109375 -93.609375 L 65.6875 -93.609375 L 65.6875 -73.3125 L 35.40625 -73.3125 L 35.40625 -58.578125 L 63.453125 -58.578125 L 63.453125 -38.28125 L 35.40625 -38.28125 L 35.40625 -20.609375 L 65.6875 -20.609375 Z M 65.6875 0 "/></g></g></g><g fill="#ffffff" fill-opacity="1"><g transform="translate(261.929303, 249.519366)"><g><path d="M 29.5625 0 L 8.546875 0 L 8.546875 -79.03125 L 55.25 -79.03125 L 55.25 -61.890625 L 29.5625 -61.890625 L 29.5625 -46.8125 L 53.25 -46.8125 L 53.25 -29.671875 L 29.5625 -29.671875 Z M 29.5625 0 "/></g></g></g></svg>